<?xml version="1.0" standalone="no"?>
<!DOCTYPE svg PUBLIC "-//W3C//DTD SVG 20010904//EN"
 "http://www.w3.org/TR/2001/REC-SVG-20010904/DTD/svg10.dtd">
<svg version="1.0" xmlns="http://www.w3.org/2000/svg"
 width="527.000000pt" height="98.000000pt" viewBox="0 0 527.000000 98.000000"
 preserveAspectRatio="xMidYMid meet">

<g transform="translate(0.000000,98.000000) scale(0.100000,-0.100000)"
fill="#000000" stroke="none">
<path d="M739 907 c-66 -19 -133 -61 -175 -111 -33 -40 -39 -43 -69 -36 -37 8
-98 0 -132 -18 -29 -16 -70 -70 -78 -103 -5 -19 -16 -29 -43 -37 -62 -19 -118
-68 -148 -129 -64 -130 -15 -278 112 -343 l49 -25 445 0 c437 0 446 0 486 22
47 25 99 76 121 117 22 41 28 137 13 191 -16 56 -78 128 -129 151 -33 14 -40
23 -45 56 -29 182 -232 314 -407 265z m-6 -382 c53 -44 96 -84 96 -90 0 -9
-58 -61 -175 -158 l-34 -28 0 181 c0 100 4 180 9 178 4 -1 51 -39 104 -83z"/>
<path d="M2790 778 l0 -58 70 0 70 0 0 55 c0 61 8 56 -97 60 l-43 1 0 -58z"/>
<path d="M4183 832 l-53 -3 0 -320 0 -319 70 0 c63 0 70 2 70 20 0 18 2 18 36
-5 77 -52 215 -17 276 70 55 78 57 196 5 287 -55 98 -212 139 -291 77 l-26
-20 0 104 c0 119 4 114 -87 109z m270 -321 c58 -57 42 -162 -30 -196 -64 -31
-134 -2 -154 64 -38 128 92 221 184 132z"/>
<path d="M1610 626 c0 -112 5 -228 10 -257 13 -71 53 -125 118 -162 45 -25 65
-30 123 -30 57 0 80 5 126 29 113 58 133 121 133 427 l0 197 -74 0 -75 0 -3
-236 -3 -236 -28 -24 c-42 -36 -109 -34 -148 5 l-29 29 0 231 0 231 -75 0 -75
0 0 -204z"/>
<path d="M3020 765 l0 -65 75 0 75 0 0 -255 0 -255 75 0 75 0 0 255 0 255 75
0 75 0 0 65 0 65 -225 0 -225 0 0 -65z"/>
<path d="M2462 663 c-12 -2 -38 -20 -58 -39 -20 -19 -38 -34 -40 -34 -2 0 -4
16 -4 35 l0 35 -70 0 -70 0 0 -235 0 -235 70 0 70 0 0 131 c0 140 7 166 55
202 43 31 80 33 109 4 26 -26 26 -28 26 -182 l0 -155 70 0 70 0 0 168 c0 141
-3 173 -19 207 -39 85 -107 117 -209 98z"/>
<path d="M4880 661 c-78 -25 -148 -90 -170 -156 -20 -61 -9 -155 25 -210 73
-116 273 -153 384 -70 l30 22 -39 38 c-36 35 -42 37 -65 27 -36 -17 -120 -15
-155 3 -31 16 -54 48 -43 59 3 3 80 6 171 6 l165 0 -6 65 c-9 95 -49 160 -119
196 -45 23 -138 33 -178 20z m120 -126 c31 -16 54 -48 43 -59 -12 -11 -181 -7
-189 6 -4 6 6 23 25 40 36 32 76 36 121 13z"/>
<path d="M2790 425 l0 -235 70 0 70 0 0 235 0 235 -70 0 -70 0 0 -235z"/>
<path d="M3560 493 c0 -142 3 -174 19 -208 31 -68 86 -105 156 -105 46 0 76
13 119 50 l36 32 0 -36 0 -36 70 0 70 0 0 235 0 235 -70 0 -70 0 0 -126 c0
-143 -12 -183 -64 -215 -42 -26 -72 -24 -101 6 -24 24 -25 28 -25 180 l0 155
-70 0 -70 0 0 -167z"/>
</g>
</svg>
